<svg width="120" height="120" viewBox="0 0 120 120" fill="none" xmlns="http://www.w3.org/2000/svg">
<path d="M106.612 22.2121C100.985 15.2741 93.8804 9.67961 85.8162 5.83686C77.752 1.99411 68.9318 0 59.9988 0C51.0659 0 42.2456 1.99411 34.1814 5.83686C26.1172 9.67961 19.0126 15.2741 13.3857 22.2121L23.4276 34.0256L60.1092 77.7171L96.7909 34.0256L96.7381 33.956L106.612 22.2121ZM60.1164 70.8489L29.1099 33.9224C32.4867 29.9192 36.5985 26.5994 41.2235 24.1422C47.0452 21.0709 53.5282 19.4656 60.1104 19.4656C66.6927 19.4656 73.1756 21.0709 78.9974 24.1422C83.6224 26.5994 87.7342 29.9192 91.111 33.9224L60.1164 70.8489Z" fill="#D61B53"/>
<path d="M15.6113 67.1181L0.897853 49.5935C0.297633 53.0258 -0.00277596 56.5039 1.9328e-05 59.9882C1.9328e-05 93.129 26.8631 119.99 59.999 119.99L45.2927 102.465L15.6113 67.1181Z" fill="#D61B53"/>
<path d="M119.1 49.5959L104.389 67.1206C104.389 67.1782 104.367 67.2334 104.357 67.2886L74.8656 102.415L74.7048 102.475L59.9985 119.999C93.1272 119.999 120 93.1386 120 59.9979C120.002 56.511 119.701 53.0306 119.1 49.5959Z" fill="#D61B53"/>
</svg>
